<svg version="1.1" id="Layer_1" xmlns="http://www.w3.org/2000/svg" xmlns:xlink="http://www.w3.org/1999/xlink" x="0px" y="0px"
	 width="100%" viewBox="0 0 816 816" enable-background="new 0 0 816 816" xml:space="preserve">
<path fill="#000000" opacity="1.000000" stroke="none" 
	d="
M547.000000,817.000000 
	C364.666718,817.000000 182.833435,817.000000 1.000122,817.000000 
	C1.000081,545.000122 1.000081,273.000275 1.000041,1.000304 
	C272.999786,1.000203 544.999573,1.000203 816.999512,1.000101 
	C816.999634,272.999695 816.999634,544.999390 816.999817,816.999512 
	C727.166687,817.000000 637.333313,817.000000 547.000000,817.000000 
M455.471222,523.824402 
	C480.398224,514.474670 498.339355,496.513641 512.427490,474.969482 
	C530.351196,447.559875 533.258728,417.058807 525.060913,385.829407 
	C515.670776,350.058197 493.234589,324.763092 459.713135,309.300507 
	C455.226044,307.230743 450.521088,305.633331 445.538483,303.667847 
	C453.224731,284.083374 460.808167,264.760925 468.391632,245.438446 
	C467.936584,245.163589 467.481537,244.888748 467.026520,244.613892 
	C465.864410,245.985001 464.567535,247.264450 463.562439,248.742310 
	C457.770935,257.257843 452.128815,265.876099 446.258636,274.336426 
	C444.223785,277.269073 440.787048,279.377563 437.689240,277.331696 
	C435.338959,275.779541 433.188568,272.214050 433.012878,269.414917 
	C432.566589,262.304749 433.317749,255.122833 433.497375,247.967346 
	C433.536255,246.418274 433.188477,244.859497 433.018768,243.305191 
	C432.540497,243.261185 432.062225,243.217178 431.583954,243.173172 
	C430.689850,244.860519 429.759216,246.529694 428.908142,248.238464 
	C425.877045,254.324280 423.430023,260.790283 419.719574,266.426117 
	C414.942657,273.681641 405.838562,273.343872 401.074127,266.035339 
	C398.930908,262.747681 397.067444,258.932922 396.356720,255.118866 
	C393.953888,242.224289 392.164368,229.216278 390.017517,216.272003 
	C389.782928,214.857574 388.752289,213.575165 388.090881,212.231506 
	C387.336823,213.515808 386.101929,214.731796 385.908142,216.095703 
	C384.807587,223.842178 384.517700,231.745468 382.871399,239.361832 
	C380.987823,248.075836 378.861481,256.947510 375.208710,265.011475 
	C371.344757,273.541748 362.217529,274.143127 356.850037,266.492554 
	C352.811554,260.736176 350.347321,253.879852 347.130157,247.539627 
	C346.329224,245.961136 345.326843,244.484863 344.417023,242.961609 
	C343.813934,243.126984 343.210876,243.292358 342.607788,243.457733 
	C342.607788,245.640198 342.564270,247.823715 342.615906,250.004944 
	C342.773193,256.648438 343.418518,263.324768 342.926178,269.917572 
	C342.727417,272.579163 340.567078,276.452881 338.394379,277.223572 
	C336.253174,277.983093 332.670746,275.953339 330.272247,274.331635 
	C328.157471,272.901733 326.594025,270.482300 325.153290,268.262238 
	C320.807068,261.564941 316.682556,254.724030 312.363495,248.008621 
	C311.544891,246.735855 310.230499,245.781982 309.144867,244.680969 
	C308.605743,245.024979 308.066650,245.368988 307.527527,245.713013 
	C314.598053,263.250336 321.668579,280.787689 328.990417,298.948425 
	C318.981384,298.948425 310.002533,299.041626 301.027405,298.900085 
	C297.686340,298.847443 296.357635,299.862885 296.316010,303.439575 
	C295.978271,332.462402 297.316132,361.314270 304.188599,389.673096 
	C308.890594,409.075714 315.614075,427.769073 328.025360,443.558167 
	C349.296387,470.618225 377.127411,482.205811 411.757690,477.884918 
	C424.312073,476.318451 434.835632,471.046509 443.961853,463.474030 
	C461.662872,448.786621 469.751678,429.726746 465.962769,406.390320 
	C462.151642,382.917175 442.283600,363.119171 416.808075,361.605591 
	C398.877686,360.540344 380.839630,361.317474 362.850220,361.188171 
	C359.490967,361.164032 358.106384,362.385712 358.137573,365.897369 
	C358.313629,385.718964 358.327606,405.541962 358.387604,425.364502 
	C358.404419,430.921478 358.390167,436.478516 358.390167,443.501160 
	C355.881836,441.805054 354.443298,441.271576 353.670288,440.239532 
	C347.920776,432.563721 341.223480,425.351685 336.841583,416.942566 
	C322.204285,388.852509 319.665131,357.951172 317.823669,327.034790 
	C317.437866,320.557709 317.785736,320.615906 324.437408,320.504272 
	C354.083557,320.006897 383.727692,319.353394 413.375488,319.016083 
	C419.824158,318.942749 426.503540,319.062286 432.698853,320.607666 
	C450.627594,325.079773 466.317535,333.764801 479.123474,347.399841 
	C505.668365,375.663269 514.356323,408.500244 502.483612,445.476013 
	C490.774048,481.943604 464.538666,502.910339 427.109039,508.999268 
	C409.887421,511.800812 392.286102,510.549866 375.016510,507.467621 
	C357.259552,504.298431 340.536591,498.238770 326.662567,486.422211 
	C318.850098,479.768311 312.130096,471.833466 304.898651,464.494751 
	C302.442413,462.002045 299.926941,459.567719 296.698883,456.375214 
	C296.518005,459.025665 296.351532,460.320618 296.352753,461.615448 
	C296.380707,490.942108 296.312683,520.269531 296.503265,549.595215 
	C296.680847,576.923096 308.737854,597.473999 332.752808,610.585693 
	C344.767517,617.145447 357.684296,620.706482 371.605072,619.526978 
	C376.039307,619.151184 378.315430,617.492676 378.379059,612.469482 
	C378.706055,586.657776 379.435242,560.851257 379.793243,535.039734 
	C379.846344,531.210632 380.620056,529.675842 384.769440,529.867798 
	C393.248657,530.259949 401.812927,529.534424 410.230621,530.379639 
	C425.673004,531.930237 440.370361,529.423218 455.471222,523.824402 
M391.849731,191.442429 
	C388.582764,189.451950 384.952576,189.511200 383.090240,192.626205 
	C381.717865,194.921616 381.439545,198.680862 382.264465,201.283707 
	C383.401489,204.871429 387.219452,204.737534 390.370148,204.003754 
	C395.859039,202.725388 396.759003,197.103043 391.849731,191.442429 
M430.027252,231.536163 
	C433.664337,237.062241 439.325836,238.389771 441.892792,233.882904 
	C443.206238,231.576904 443.553070,227.473694 442.321808,225.352356 
	C441.303864,223.598572 437.220245,222.667496 434.684631,222.968643 
	C430.565643,223.457840 429.211700,226.797134 430.027252,231.536163 
M333.451050,225.099533 
	C331.051605,228.552444 331.509033,232.143768 334.624176,234.366577 
	C336.560150,235.748001 340.000732,236.224106 342.330750,235.565887 
	C345.762787,234.596344 346.529572,231.157547 346.039124,227.766159 
	C345.267761,222.432236 339.708862,220.978256 333.451050,225.099533 
M297.070129,226.313400 
	C292.913727,231.801636 294.493744,238.771912 300.200745,238.883698 
	C302.678467,238.932205 306.013062,237.176834 307.447052,235.164001 
	C308.573792,233.582428 308.202606,229.833649 307.034088,227.959702 
	C304.980652,224.666626 301.370117,224.279190 297.070129,226.313400 
M481.740997,233.910110 
	C482.604370,230.139740 481.440857,226.832169 477.749298,225.964478 
	C475.230164,225.372360 471.038239,225.773102 469.806793,227.402267 
	C468.322540,229.365906 468.198792,233.511032 469.232147,235.981537 
	C471.306396,240.940674 477.719177,240.051056 481.740997,233.910110 
z"/>
<path fill="#F6F6F6" opacity="1.000000" stroke="none" 
	d="
M455.121002,523.993103 
	C440.370361,529.423218 425.673004,531.930237 410.230621,530.379639 
	C401.812927,529.534424 393.248657,530.259949 384.769440,529.867798 
	C380.620056,529.675842 379.846344,531.210632 379.793243,535.039734 
	C379.435242,560.851257 378.706055,586.657776 378.379059,612.469482 
	C378.315430,617.492676 376.039307,619.151184 371.605072,619.526978 
	C357.684296,620.706482 344.767517,617.145447 332.752808,610.585693 
	C308.737854,597.473999 296.680847,576.923096 296.503265,549.595215 
	C296.312683,520.269531 296.380707,490.942108 296.352753,461.615448 
	C296.351532,460.320618 296.518005,459.025665 296.698883,456.375214 
	C299.926941,459.567719 302.442413,462.002045 304.898651,464.494751 
	C312.130096,471.833466 318.850098,479.768311 326.662567,486.422211 
	C340.536591,498.238770 357.259552,504.298431 375.016510,507.467621 
	C392.286102,510.549866 409.887421,511.800812 427.109039,508.999268 
	C464.538666,502.910339 490.774048,481.943604 502.483612,445.476013 
	C514.356323,408.500244 505.668365,375.663269 479.123474,347.399841 
	C466.317535,333.764801 450.627594,325.079773 432.698853,320.607666 
	C426.503540,319.062286 419.824158,318.942749 413.375488,319.016083 
	C383.727692,319.353394 354.083557,320.006897 324.437408,320.504272 
	C317.785736,320.615906 317.437866,320.557709 317.823669,327.034790 
	C319.665131,357.951172 322.204285,388.852509 336.841583,416.942566 
	C341.223480,425.351685 347.920776,432.563721 353.670288,440.239532 
	C354.443298,441.271576 355.881836,441.805054 358.390167,443.501160 
	C358.390167,436.478516 358.404419,430.921478 358.387604,425.364502 
	C358.327606,405.541962 358.313629,385.718964 358.137573,365.897369 
	C358.106384,362.385712 359.490967,361.164032 362.850220,361.188171 
	C380.839630,361.317474 398.877686,360.540344 416.808075,361.605591 
	C442.283600,363.119171 462.151642,382.917175 465.962769,406.390320 
	C469.751678,429.726746 461.662872,448.786621 443.961853,463.474030 
	C434.835632,471.046509 424.312073,476.318451 411.757690,477.884918 
	C377.127411,482.205811 349.296387,470.618225 328.025360,443.558167 
	C315.614075,427.769073 308.890594,409.075714 304.188599,389.673096 
	C297.316132,361.314270 295.978271,332.462402 296.316010,303.439575 
	C296.357635,299.862885 297.686340,298.847443 301.027405,298.900085 
	C310.002533,299.041626 318.981384,298.948425 328.990417,298.948425 
	C321.668579,280.787689 314.598053,263.250336 307.527527,245.713013 
	C308.066650,245.368988 308.605743,245.024979 309.144867,244.680969 
	C310.230499,245.781982 311.544891,246.735855 312.363495,248.008621 
	C316.682556,254.724030 320.807068,261.564941 325.153290,268.262238 
	C326.594025,270.482300 328.157471,272.901733 330.272247,274.331635 
	C332.670746,275.953339 336.253174,277.983093 338.394379,277.223572 
	C340.567078,276.452881 342.727417,272.579163 342.926178,269.917572 
	C343.418518,263.324768 342.773193,256.648438 342.615906,250.004944 
	C342.564270,247.823715 342.607788,245.640198 342.607788,243.457733 
	C343.210876,243.292358 343.813934,243.126984 344.417023,242.961609 
	C345.326843,244.484863 346.329224,245.961136 347.130157,247.539627 
	C350.347321,253.879852 352.811554,260.736176 356.850037,266.492554 
	C362.217529,274.143127 371.344757,273.541748 375.208710,265.011475 
	C378.861481,256.947510 380.987823,248.075836 382.871399,239.361832 
	C384.517700,231.745468 384.807587,223.842178 385.908142,216.095703 
	C386.101929,214.731796 387.336823,213.515808 388.090881,212.231506 
	C388.752289,213.575165 389.782928,214.857574 390.017517,216.272003 
	C392.164368,229.216278 393.953888,242.224289 396.356720,255.118866 
	C397.067444,258.932922 398.930908,262.747681 401.074127,266.035339 
	C405.838562,273.343872 414.942657,273.681641 419.719574,266.426117 
	C423.430023,260.790283 425.877045,254.324280 428.908142,248.238464 
	C429.759216,246.529694 430.689850,244.860519 431.583954,243.173172 
	C432.062225,243.217178 432.540497,243.261185 433.018768,243.305191 
	C433.188477,244.859497 433.536255,246.418274 433.497375,247.967346 
	C433.317749,255.122833 432.566589,262.304749 433.012878,269.414917 
	C433.188568,272.214050 435.338959,275.779541 437.689240,277.331696 
	C440.787048,279.377563 444.223785,277.269073 446.258636,274.336426 
	C452.128815,265.876099 457.770935,257.257843 463.562439,248.742310 
	C464.567535,247.264450 465.864410,245.985001 467.026520,244.613892 
	C467.481537,244.888748 467.936584,245.163589 468.391632,245.438446 
	C460.808167,264.760925 453.224731,284.083374 445.538483,303.667847 
	C450.521088,305.633331 455.226044,307.230743 459.713135,309.300507 
	C493.234589,324.763092 515.670776,350.058197 525.060913,385.829407 
	C533.258728,417.058807 530.351196,447.559875 512.427490,474.969482 
	C498.339355,496.513641 480.398224,514.474670 455.121002,523.993103 
M339.981232,591.997070 
	C339.981232,591.997070 339.955505,592.072937 340.025391,592.778442 
	C341.694366,593.512756 343.363342,594.247009 345.511505,595.039001 
	C345.511505,595.039001 345.924377,595.289062 345.999969,595.973206 
	C349.213531,598.665283 352.427124,601.357300 357.755493,599.041077 
	C358.256287,597.715942 358.757050,596.390808 359.961548,594.878601 
	C359.726440,592.563721 359.491333,590.248779 359.094971,587.225647 
	C359.148773,586.505676 359.202545,585.785767 359.869354,584.975342 
	C359.653900,583.964050 359.438446,582.952698 359.062531,581.289429 
	C359.106323,580.847229 359.150116,580.405029 359.780365,579.373718 
	C359.832306,563.530457 359.908508,547.687073 359.876984,531.843994 
	C359.875061,530.877258 359.019714,529.912170 358.345825,528.552368 
	C358.267303,528.253723 358.275269,527.957397 358.646545,526.913635 
	C357.964783,526.358337 357.283020,525.803101 356.069550,525.126221 
	C355.740692,524.971985 355.411835,524.817749 354.948517,523.988464 
	C348.975281,521.931763 343.002045,519.875061 336.447144,517.836182 
	C335.969177,517.548584 335.491180,517.260986 334.962708,516.282532 
	C330.097626,513.704041 325.232544,511.125580 319.717804,508.288116 
	C319.017731,509.162079 318.317627,510.036011 316.867920,511.144287 
	C316.593964,512.885132 316.092896,514.624634 316.083130,516.366943 
	C316.021942,527.299805 316.140625,538.233704 316.059692,549.166199 
	C315.995728,557.800598 318.286713,565.799438 322.233032,573.371887 
	C322.782501,574.426208 323.924438,575.171692 325.207336,576.466187 
	C325.470428,576.979553 325.733551,577.492859 325.919037,578.719910 
	C327.213776,580.166321 328.508484,581.612793 330.239471,583.392151 
	C330.468018,583.675354 330.696533,583.958557 330.869629,584.929443 
	C331.841644,585.653381 332.813690,586.377258 334.338440,587.341003 
	C334.874329,587.932190 335.410187,588.523376 335.988220,589.809937 
	C337.299988,590.557495 338.611755,591.305054 339.981232,591.997070 
M441.694275,432.002136 
	C442.810638,425.680969 444.911560,419.351288 444.857056,413.040253 
	C444.699615,394.803802 429.371063,380.983063 411.227966,381.764709 
	C402.407898,382.144745 393.581238,382.579498 384.757751,382.575592 
	C381.036163,382.573975 379.875214,383.639435 379.901855,387.390350 
	C380.050903,408.380585 380.047333,429.373169 379.887146,450.363312 
	C379.855530,454.510223 381.615692,456.056396 385.426880,456.262085 
	C389.910400,456.504059 394.380249,457.026367 398.864960,457.215088 
	C418.195648,458.028412 432.514343,450.078918 441.694275,432.002136 
z"/>
<path fill="#F3F3F3" opacity="1.000000" stroke="none" 
	d="
M392.147400,191.664688 
	C396.759003,197.103043 395.859039,202.725388 390.370148,204.003754 
	C387.219452,204.737534 383.401489,204.871429 382.264465,201.283707 
	C381.439545,198.680862 381.717865,194.921616 383.090240,192.626205 
	C384.952576,189.511200 388.582764,189.451950 392.147400,191.664688 
z"/>
<path fill="#F3F3F3" opacity="1.000000" stroke="none" 
	d="
M429.958191,231.181351 
	C429.211700,226.797134 430.565643,223.457840 434.684631,222.968643 
	C437.220245,222.667496 441.303864,223.598572 442.321808,225.352356 
	C443.553070,227.473694 443.206238,231.576904 441.892792,233.882904 
	C439.325836,238.389771 433.664337,237.062241 429.958191,231.181351 
z"/>
<path fill="#F2F2F2" opacity="1.000000" stroke="none" 
	d="
M333.714783,224.827515 
	C339.708862,220.978256 345.267761,222.432236 346.039124,227.766159 
	C346.529572,231.157547 345.762787,234.596344 342.330750,235.565887 
	C340.000732,236.224106 336.560150,235.748001 334.624176,234.366577 
	C331.509033,232.143768 331.051605,228.552444 333.714783,224.827515 
z"/>
<path fill="#F1F1F1" opacity="1.000000" stroke="none" 
	d="
M297.413971,226.141220 
	C301.370117,224.279190 304.980652,224.666626 307.034088,227.959702 
	C308.202606,229.833649 308.573792,233.582428 307.447052,235.164001 
	C306.013062,237.176834 302.678467,238.932205 300.200745,238.883698 
	C294.493744,238.771912 292.913727,231.801636 297.413971,226.141220 
z"/>
<path fill="#F2F2F2" opacity="1.000000" stroke="none" 
	d="
M481.577026,234.272858 
	C477.719177,240.051056 471.306396,240.940674 469.232147,235.981537 
	C468.198792,233.511032 468.322540,229.365906 469.806793,227.402267 
	C471.038239,225.773102 475.230164,225.372360 477.749298,225.964478 
	C481.440857,226.832169 482.604370,230.139740 481.577026,234.272858 
z"/>
<path fill="#030303" opacity="1.000000" stroke="none" 
	d="
M441.530334,432.347595 
	C432.514343,450.078918 418.195648,458.028412 398.864960,457.215088 
	C394.380249,457.026367 389.910400,456.504059 385.426880,456.262085 
	C381.615692,456.056396 379.855530,454.510223 379.887146,450.363312 
	C380.047333,429.373169 380.050903,408.380585 379.901855,387.390350 
	C379.875214,383.639435 381.036163,382.573975 384.757751,382.575592 
	C393.581238,382.579498 402.407898,382.144745 411.227966,381.764709 
	C429.371063,380.983063 444.699615,394.803802 444.857056,413.040253 
	C444.911560,419.351288 442.810638,425.680969 441.530334,432.347595 
z"/>
<path fill="#030303" opacity="1.000000" stroke="none" 
	d="
M358.369690,527.663391 
	C358.275269,527.957397 358.267303,528.253723 358.322754,529.137329 
	C358.597717,546.469177 358.895813,563.216003 359.193909,579.962830 
	C359.150116,580.405029 359.106323,580.847229 359.012665,581.995056 
	C359.060638,583.489075 359.158508,584.277405 359.256348,585.065796 
	C359.202545,585.785767 359.148773,586.505676 359.039215,588.009521 
	C359.074951,590.884155 359.166412,592.974915 359.257874,595.065735 
	C358.757050,596.390808 358.256287,597.715942 357.066040,599.012268 
	C352.892517,597.752014 349.408447,596.520569 345.924377,595.289062 
	C345.924377,595.289062 345.511505,595.039001 345.123322,594.712463 
	C343.141937,593.614929 341.548706,592.843933 339.955505,592.072937 
	C339.955505,592.072937 339.981232,591.997070 339.838379,591.720093 
	C338.445740,590.666992 337.195923,589.890747 335.946075,589.114563 
	C335.410187,588.523376 334.874329,587.932190 334.008301,586.919617 
	C332.760498,585.746094 331.842773,584.993896 330.925049,584.241760 
	C330.696533,583.958557 330.468018,583.675354 330.015442,582.894226 
	C328.526459,580.932922 327.261566,579.469604 325.996643,578.006226 
	C325.733551,577.492859 325.470428,576.979553 325.001953,575.901428 
	C319.984955,566.415100 317.593933,557.017578 317.865967,546.752014 
	C318.182281,534.815247 317.734009,522.858215 317.617554,510.909973 
	C318.317627,510.036011 319.017731,509.162079 320.243683,508.687744 
	C325.517426,511.716064 330.265320,514.344727 335.013184,516.973450 
	C335.491180,517.260986 335.969177,517.548584 336.975708,518.083374 
	C343.363831,520.441528 349.223419,522.552551 355.083008,524.663574 
	C355.411835,524.817749 355.740692,524.971985 356.455933,525.467163 
	C357.351410,526.426514 357.860565,527.044922 358.369690,527.663391 
z"/>
<path fill="#C3C3C3" opacity="1.000000" stroke="none" 
	d="
M317.242737,511.027130 
	C317.734009,522.858215 318.182281,534.815247 317.865967,546.752014 
	C317.593933,557.017578 319.984955,566.415100 324.794373,575.698364 
	C323.924438,575.171692 322.782501,574.426208 322.233032,573.371887 
	C318.286713,565.799438 315.995728,557.800598 316.059692,549.166199 
	C316.140625,538.233704 316.021942,527.299805 316.083130,516.366943 
	C316.092896,514.624634 316.593964,512.885132 317.242737,511.027130 
z"/>
<path fill="#C3C3C3" opacity="1.000000" stroke="none" 
	d="
M359.487122,579.668274 
	C358.895813,563.216003 358.597717,546.469177 358.430542,529.334351 
	C359.019714,529.912170 359.875061,530.877258 359.876984,531.843994 
	C359.908508,547.687073 359.832306,563.530457 359.487122,579.668274 
z"/>
<path fill="#C3C3C3" opacity="1.000000" stroke="none" 
	d="
M355.015747,524.325989 
	C349.223419,522.552551 343.363831,520.441528 337.266541,518.074463 
	C343.002045,519.875061 348.975281,521.931763 355.015747,524.325989 
z"/>
<path fill="#C3C3C3" opacity="1.000000" stroke="none" 
	d="
M334.987946,516.627991 
	C330.265320,514.344727 325.517426,511.716064 320.568512,508.817261 
	C325.232544,511.125580 330.097626,513.704041 334.987946,516.627991 
z"/>
<path fill="#C3C3C3" opacity="1.000000" stroke="none" 
	d="
M345.962158,595.631104 
	C349.408447,596.520569 352.892517,597.752014 356.722412,599.141846 
	C352.427124,601.357300 349.213531,598.665283 345.962158,595.631104 
z"/>
<path fill="#C3C3C3" opacity="1.000000" stroke="none" 
	d="
M359.609711,594.972168 
	C359.166412,592.974915 359.074951,590.884155 359.119843,588.363647 
	C359.491333,590.248779 359.726440,592.563721 359.609711,594.972168 
z"/>
<path fill="#C3C3C3" opacity="1.000000" stroke="none" 
	d="
M325.957825,578.363037 
	C327.261566,579.469604 328.526459,580.932922 329.797302,582.727783 
	C328.508484,581.612793 327.213776,580.166321 325.957825,578.363037 
z"/>
<path fill="#C3C3C3" opacity="1.000000" stroke="none" 
	d="
M339.990448,592.425659 
	C341.548706,592.843933 343.141937,593.614929 344.883728,594.683594 
	C343.363342,594.247009 341.694366,593.512756 339.990448,592.425659 
z"/>
<path fill="#C3C3C3" opacity="1.000000" stroke="none" 
	d="
M335.967163,589.462280 
	C337.195923,589.890747 338.445740,590.666992 339.809540,591.747925 
	C338.611755,591.305054 337.299988,590.557495 335.967163,589.462280 
z"/>
<path fill="#C3C3C3" opacity="1.000000" stroke="none" 
	d="
M359.562866,585.020569 
	C359.158508,584.277405 359.060638,583.489075 359.092896,582.321045 
	C359.438446,582.952698 359.653900,583.964050 359.562866,585.020569 
z"/>
<path fill="#C3C3C3" opacity="1.000000" stroke="none" 
	d="
M330.897339,584.585571 
	C331.842773,584.993896 332.760498,585.746094 333.731934,586.799683 
	C332.813690,586.377258 331.841644,585.653381 330.897339,584.585571 
z"/>
<path fill="#C3C3C3" opacity="1.000000" stroke="none" 
	d="
M358.508118,527.288513 
	C357.860565,527.044922 357.351410,526.426514 356.721771,525.527954 
	C357.283020,525.803101 357.964783,526.358337 358.508118,527.288513 
z"/>
</svg>